<svg width="117" height="92" viewBox="0 0 117 92" fill="none" xmlns="http://www.w3.org/2000/svg">
<mask id="mask0_127_1256" style="mask-type:luminance" maskUnits="userSpaceOnUse" x="29" y="11" width="64" height="44">
<path d="M29.952 11.7759H92.1363V54.7092H29.952V11.7759Z" fill="white"/>
</mask>
<g mask="url(#mask0_127_1256)">
<path fill-rule="evenodd" clip-rule="evenodd" d="M69.7722 41.6357C94.8614 26.4874 89.6171 13.4904 71.8867 12.3644C79.5917 11.3275 86.1486 12.4698 89.6318 16.0329C96.358 22.9128 89.0431 36.2001 73.2981 45.7067C57.5542 55.2124 39.3327 57.3428 32.5991 50.462C29.1159 46.8999 29.3987 41.6252 32.6564 36.0439C25.4256 51.6503 47.8335 54.8674 69.7649 41.6309L69.7722 41.6357Z" fill="#116D02"/>
</g>
<path fill-rule="evenodd" clip-rule="evenodd" d="M51.2606 27.875C51.6713 27.2454 53.0193 26.2477 54.1698 25.9353L54.0199 25.5673L53.4666 24.2122L56.4537 23.4542L57.1923 25.2549C57.7883 25.1159 58.7108 25.2214 59.2069 25.2606C59.8455 25.3162 60.4208 25.4552 60.9594 25.6727C61.9954 26.0915 62.996 26.816 63.492 28.0312L60.2428 28.8563C60.0661 28.427 59.7175 28.1203 59.3775 27.9258C59.1435 27.7916 58.4403 27.552 58.1356 27.5741L59.4628 30.8084C59.9308 30.6915 61.0728 30.6915 61.5054 30.6858C62.1014 30.68 62.8753 30.7356 63.3933 30.8525C64.4365 31.0873 65.5785 31.7898 66.0392 32.9101L66.2244 33.3566C66.7205 34.5661 66.2744 35.6423 65.7272 36.4396C65.2872 37.075 63.8052 38.1512 62.6133 38.4751L63.1447 39.7794L60.1575 40.5374L59.6115 39.2054C57.731 39.5504 55.4044 39.2274 53.9992 38.1234C53.5738 37.7832 53.0973 37.2647 52.8499 36.6571L52.7426 36.3946L55.8651 35.603C55.9223 35.5867 56.823 36.5402 57.029 36.6629C57.341 36.8411 58.2063 37.075 58.6889 36.9581L57.2776 33.5176C56.9363 33.5962 55.6871 33.602 55.3118 33.5962C51.6153 33.5684 49.5641 30.4682 51.246 27.8702L51.2606 27.875ZM71.4322 38.776C69.2469 32.9216 69.3042 24.586 71.6162 13.775L70.8996 13.73C65.9124 15.4416 56.6524 18.6309 43.1145 23.2865C44.0871 33.1611 47.6909 41.0616 53.9285 46.9937C59.2642 45.5169 64.3658 43.1134 68.6717 40.5154C69.5809 39.9691 70.5023 39.3894 71.4322 38.7818V38.776Z" fill="#116D02"/>
<mask id="mask1_127_1256" style="mask-type:luminance" maskUnits="userSpaceOnUse" x="24" y="5" width="40" height="44">
<path d="M24.5103 5.72314H63.648V48.576H24.5103V5.72314Z" fill="white"/>
</mask>
<g mask="url(#mask1_127_1256)">
<path fill-rule="evenodd" clip-rule="evenodd" d="M41.462 22.7066C34.1325 25.3996 41.462 22.7066 63.4507 14.6221L62.7268 9.4759L34.6358 20.1536C34.7565 29.2856 38.7442 37.5158 46.6271 46.4091C37.389 36.936 32.6212 29.1189 32.3726 19.3669C24.7444 22.2102 32.3726 19.3669 55.2473 10.8415L54.1334 5.7959L24.5031 15.4252C25.405 21.0114 28.6688 28.104 33.4646 34.7778L34.5151 36.2C37.9496 40.7214 42.0787 44.9812 46.6417 48.3603C47.0451 48.321 47.4424 48.2817 47.8263 48.2319C49.4936 48.0201 51.1535 47.7019 52.8 47.2841C46.599 41.8589 42.682 34.0025 41.4547 22.7066H41.462Z" fill="#1BB402"/>
</g>
<path fill-rule="evenodd" clip-rule="evenodd" d="M54.0418 28.9291C53.4593 29.6096 53.8639 30.6244 54.8438 30.8976C55.0631 30.9589 55.9577 31.0202 56.2417 30.9694L55.0912 28.1816C54.7865 28.2823 54.1905 28.7566 54.0345 28.9349L54.0418 28.9291Z" fill="#116D02"/>
<path fill-rule="evenodd" clip-rule="evenodd" d="M60.5048 33.3117L61.7187 36.2557C62.2647 36.1053 62.6133 35.7152 62.868 35.4364C63.1239 35.1575 63.2153 34.6496 63.0313 34.1982L63.0033 34.1206C62.7047 33.3951 61.3421 33.2562 60.5048 33.3117Z" fill="#116D02"/>
<path fill-rule="evenodd" clip-rule="evenodd" d="M74.4047 46.8329C70.6448 49.1022 66.3951 51.1646 61.9174 52.7545C62.556 53.1052 63.2153 53.4454 63.8893 53.7684C63.1312 53.479 62.3854 53.1665 61.6614 52.8436C60.2574 53.3342 58.8242 53.7799 57.3763 54.1699C65.8978 57.1082 75.1006 56.2782 83.7574 48.74C80.8129 48.2206 78.3364 47.1837 76.3279 45.634C75.6966 46.0461 75.0579 46.4477 74.412 46.8387L74.4047 46.8329Z" fill="#1BB402"/>
<mask id="mask2_127_1256" style="mask-type:luminance" maskUnits="userSpaceOnUse" x="50" y="57" width="38" height="3">
<path d="M50.544 57.8987H87.048V59.4512H50.544V57.8987Z" fill="white"/>
</mask>
<g mask="url(#mask2_127_1256)">
<path fill-rule="evenodd" clip-rule="evenodd" d="M68.658 59.3774C78.6554 59.3774 86.765 59.0544 86.765 58.6471C86.765 58.2456 78.6554 57.9226 68.658 57.9226C58.6606 57.9226 50.5572 58.2456 50.5572 58.6471C50.5572 59.0486 58.6679 59.3774 68.658 59.3774Z" fill="#D2D3D5"/>
</g>
<path fill-rule="evenodd" clip-rule="evenodd" d="M51.1753 21.6028C48.9828 22.356 46.7902 23.1083 44.5977 23.8664C44.7891 25.8568 45.1084 27.8473 45.563 29.8377C45.5837 27.2732 45.7897 25.5003 46.1797 24.5132C47.3362 23.5377 48.9962 22.5678 51.1753 21.6085V21.6028Z" fill="#3FC629"/>
<path d="M29.9146 69.918C29.4819 71.2041 28.7458 72.2439 27.7062 73.0384C26.6691 73.8309 25.4442 74.3417 24.0305 74.5717C24.4851 74.8477 24.9933 74.9857 25.5564 74.9857C25.8452 74.9857 26.1036 74.9416 26.3315 74.8554C26.5582 74.7682 26.7849 74.656 27.0091 74.518C27.031 74.5008 27.0944 74.4624 27.1992 74.403C27.3028 74.3417 27.3967 74.311 27.482 74.311C27.5856 74.311 27.6819 74.4049 27.7696 74.5909C27.8574 74.7797 27.9012 75.0125 27.9012 75.2885C27.9012 75.5645 27.8537 75.8262 27.7599 76.0744C27.5844 76.5497 27.2724 76.9196 26.8239 77.186C26.3754 77.4544 25.8111 77.5885 25.1322 77.5885C23.6856 77.5885 22.6716 76.8947 22.0902 75.507L21.7392 74.6982C20.4644 74.6234 19.4687 74.3139 18.7509 73.7667C18.0354 73.2204 17.6784 72.4701 17.6784 71.5165C17.6784 71.0489 17.7771 70.516 17.9757 69.918C18.3133 68.9012 18.8459 68.0378 19.5747 67.3267C20.306 66.6137 21.1749 66.077 22.1829 65.7167C23.1932 65.3544 24.2998 65.1724 25.5027 65.1724C26.9713 65.1724 28.1206 65.4464 28.9494 65.9927C29.7781 66.537 30.1925 67.3229 30.1925 68.3502C30.1925 68.8361 30.0999 69.3584 29.9146 69.918ZM25.2931 70.0177C25.7477 68.7508 25.9756 67.8595 25.9756 67.3459C25.9756 67.0526 25.9098 66.8418 25.7806 66.7134C25.6539 66.583 25.4552 66.5179 25.1859 66.5179C24.8349 66.5179 24.5192 66.629 24.2401 66.8514C23.9598 67.0718 23.6819 67.4321 23.4065 67.9324C23.1335 68.4307 22.8385 69.1264 22.5241 70.0177C22.0585 71.3009 21.827 72.1864 21.827 72.6742C21.827 72.9579 21.8904 73.1639 22.0171 73.2914C22.1463 73.4198 22.351 73.483 22.6314 73.483C22.9824 73.483 23.2968 73.3719 23.5771 73.1495C23.8562 72.9253 24.1292 72.5649 24.3961 72.0685C24.6654 71.5731 24.964 70.8898 25.2931 70.0177Z" fill="#44AD33" fill-opacity="0.4"/>
<path d="M39.767 72.6435C39.7438 72.7182 39.7328 72.7738 39.7328 72.8121C39.7328 72.8763 39.7523 72.9262 39.7913 72.9616C39.8328 72.9981 39.8901 73.0153 39.962 73.0153C40.1009 73.0153 40.2203 72.9683 40.3178 72.8735C40.4178 72.7767 40.4848 72.7278 40.5177 72.7278C40.5762 72.7278 40.6262 72.7585 40.6688 72.8198C40.7103 72.8792 40.7322 72.9492 40.7322 73.0306C40.742 73.2894 40.6225 73.5443 40.3763 73.7973C40.1326 74.0484 39.7877 74.2563 39.3428 74.4221C38.9004 74.5851 38.4068 74.6675 37.8608 74.6675C37.171 74.6675 36.6226 74.5573 36.2131 74.3378C35.8036 74.1183 35.5403 73.8299 35.4233 73.4715C35.0041 73.8395 34.541 74.1183 34.034 74.3071C33.527 74.494 33.0102 74.587 32.4837 74.587C31.6672 74.587 30.9822 74.4288 30.4265 74.1116C29.8732 73.7954 29.5977 73.3517 29.5977 72.7815C29.5977 72.5266 29.6562 72.2601 29.7732 71.9841L30.8896 69.1091C30.9249 69.0248 30.9432 68.9558 30.9432 68.9021C30.9432 68.8006 30.914 68.7201 30.8555 68.6606C30.797 68.6022 30.7092 68.5399 30.5922 68.4728C30.4752 68.4019 30.3936 68.3386 30.3485 68.285C30.3022 68.2294 30.2973 68.1546 30.3338 68.0626C30.4021 67.8508 30.7677 67.664 31.4307 67.503C32.0962 67.342 32.7921 67.2615 33.5172 67.2615C34.1924 67.2615 34.6884 67.3631 35.0041 67.5643C35.3185 67.7665 35.477 68.0425 35.477 68.3923C35.477 68.6022 35.4355 68.8044 35.3551 68.998L34.2533 71.8615C34.207 71.9611 34.1851 72.057 34.1851 72.149C34.1851 72.2774 34.2302 72.3742 34.3216 72.4403C34.4154 72.5045 34.5385 72.5361 34.6921 72.5361C34.9127 72.5361 35.0931 72.4863 35.2332 72.3866C35.3722 72.2851 35.5123 72.1135 35.6525 71.873L36.7201 69.1091C36.7554 69.0248 36.7737 68.9558 36.7737 68.9021C36.7737 68.8006 36.7445 68.7201 36.686 68.6606C36.6275 68.6022 36.5458 68.5399 36.4422 68.4728C36.3252 68.4019 36.2423 68.3386 36.1936 68.285C36.1473 68.2294 36.1424 68.1546 36.179 68.0626C36.2375 67.8508 36.5982 67.664 37.2612 67.503C37.9267 67.342 38.6226 67.2615 39.3477 67.2615C40.0229 67.2615 40.5226 67.3631 40.8443 67.5643C41.1661 67.7665 41.327 68.0377 41.327 68.377C41.327 68.5514 41.2794 68.7584 41.1856 68.998L39.767 72.6435Z" fill="#44AD33" fill-opacity="0.4"/>
<path d="M45.545 67.2615C46.2202 67.2615 46.7163 67.3631 47.0319 67.5643C47.3464 67.7666 47.5048 68.0426 47.5048 68.3923C47.5048 68.6022 47.4634 68.8044 47.3829 68.998L45.7693 73.115C45.7364 73.2252 45.7205 73.3211 45.7205 73.4025C45.7205 73.5233 45.7474 73.6172 45.8034 73.6862C45.8619 73.7533 45.9448 73.8194 46.052 73.8855C46.1325 73.9497 46.1898 74.0024 46.2227 74.0427C46.258 74.0839 46.2641 74.1366 46.2422 74.1998C46.1837 74.3206 46.0667 74.4088 45.8912 74.4643C45.7181 74.518 45.45 74.5448 45.0868 74.5448H41.099C40.7944 74.5448 40.5713 74.5065 40.4312 74.4298C40.2922 74.3513 40.2447 74.2478 40.2898 74.1193C40.3385 74.0101 40.4629 73.9123 40.6603 73.828C40.8358 73.7571 40.9796 73.6708 41.0942 73.5712C41.2112 73.4696 41.3111 73.3067 41.3964 73.0843L42.9174 69.1092C42.9528 69.0248 42.971 68.9558 42.971 68.9022C42.971 68.8006 42.9418 68.7201 42.8833 68.6607C42.8248 68.6022 42.737 68.5399 42.62 68.4728C42.503 68.4019 42.4202 68.3387 42.3714 68.285C42.3251 68.2294 42.3202 68.1547 42.3568 68.0627C42.4275 67.8509 42.7955 67.664 43.4585 67.503C44.124 67.342 44.8199 67.2615 45.545 67.2615ZM46.715 64.2217C47.1696 64.2217 47.5487 64.3396 47.8509 64.5743C48.1556 64.8072 48.3092 65.0938 48.3092 65.433C48.3092 65.6707 48.2287 65.9045 48.0703 66.1345C47.9143 66.3645 47.6925 66.5514 47.4073 66.6942C47.1209 66.8351 46.8028 66.905 46.4518 66.905C46.0094 66.905 45.6389 66.7891 45.3403 66.5562C45.0441 66.3214 44.8894 66.0291 44.8772 65.6783C44.8772 65.4512 44.9515 65.2251 45.1014 64.9998C45.2538 64.7756 45.4695 64.5897 45.7498 64.444C46.0325 64.2964 46.3543 64.2217 46.715 64.2217Z" fill="#44AD33" fill-opacity="0.4"/>
<path d="M53.2637 67.1924C53.9754 67.1924 54.5994 67.2729 55.1357 67.4339C55.6719 67.5949 56.0875 67.8163 56.3837 68.097C56.6822 68.3759 56.8322 68.6855 56.8322 69.0247C56.8322 69.3927 56.6713 69.6955 56.3495 69.9332C56.0302 70.1709 55.5963 70.2897 55.0479 70.2897C54.4848 70.2897 54.0461 70.1776 53.7317 69.9524C53.4197 69.7281 53.2637 69.4234 53.2637 69.04C53.2637 68.856 53.2978 68.6634 53.366 68.4612C52.8749 68.5609 52.4398 68.7602 52.0595 69.0592C51.6817 69.3582 51.4282 69.7511 51.299 70.236C51.2308 70.512 51.1967 70.7603 51.1967 70.9797C51.1967 71.4761 51.3697 71.8528 51.7183 72.1105C52.0693 72.3664 52.5714 72.4939 53.2247 72.4939C53.5976 72.4939 53.9181 72.4651 54.185 72.4057C54.4544 72.3444 54.731 72.2639 55.0138 72.1642C55.2441 72.0722 55.4135 72.0262 55.5208 72.0262C55.589 72.0262 55.6341 72.0377 55.6573 72.0607C55.6829 72.0837 55.6963 72.1326 55.6963 72.2064C55.706 72.5437 55.5269 72.8993 55.16 73.272C54.792 73.6429 54.2837 73.9544 53.6342 74.2074C52.987 74.4604 52.2618 74.5869 51.4599 74.5869C50.6177 74.5869 49.8731 74.4661 49.2271 74.2227C48.58 73.9774 48.0779 73.6285 47.7208 73.1762C47.3625 72.722 47.1845 72.191 47.1845 71.5854C47.1845 71.3017 47.2308 70.9855 47.3259 70.6347C47.6403 69.4981 48.3375 68.6404 49.4173 68.0625C50.4959 67.4828 51.778 67.1924 53.2637 67.1924Z" fill="#44AD33" fill-opacity="0.4"/>
<path d="M66.3346 67.2614C67.0001 67.2614 67.5351 67.4071 67.9385 67.6984C68.3407 67.9878 68.543 68.3376 68.543 68.7488C68.543 69.1915 68.3736 69.5365 68.036 69.7838C67.6972 70.0291 67.2536 70.1518 66.7051 70.1518C66.214 70.1518 65.8337 70.054 65.5644 69.8566C65.2975 69.6601 65.1695 69.4378 65.1792 69.1896C65.0647 69.1723 64.966 69.2088 64.8819 69.3008C64.8002 69.3928 64.7137 69.572 64.6235 69.8374C64.565 70.0118 64.4529 70.1728 64.2871 70.3204C65.083 70.3664 65.6728 70.5083 66.0567 70.7459C66.4431 70.9836 66.6369 71.2903 66.6369 71.6659C66.6369 71.8499 66.5942 72.0339 66.5101 72.2179L66.3736 72.6434C66.3468 72.6894 66.3346 72.7498 66.3346 72.8236C66.3346 72.952 66.4102 73.0153 66.5637 73.0153C66.7027 73.0153 66.8221 72.9683 66.9196 72.8734C67.0196 72.7766 67.0878 72.7278 67.1244 72.7278C67.1829 72.7278 67.2292 72.7584 67.2657 72.8198C67.3011 72.8792 67.3194 72.9491 67.3194 73.0306C67.3291 73.297 67.2243 73.5558 67.0074 73.8088C66.7929 74.0618 66.4662 74.2688 66.0275 74.4298C65.5912 74.5879 65.0647 74.6674 64.448 74.6674C63.6997 74.6674 63.0781 74.5208 62.5809 74.2266C62.0861 73.9333 61.8399 73.5481 61.8399 73.0728C61.8399 72.8993 61.885 72.7009 61.9764 72.4786L62.3127 71.7924C62.3676 71.6266 62.3956 71.5068 62.3956 71.4321C62.3956 71.3152 62.3444 71.2289 62.2445 71.1753C62.147 71.1197 61.9934 71.0909 61.7862 71.0909H61.4352L60.6455 73.1149C60.6126 73.2251 60.5967 73.321 60.5967 73.4024C60.5967 73.5232 60.626 73.6171 60.6845 73.6861C60.743 73.7532 60.8234 73.8193 60.9282 73.8854C61.0087 73.9496 61.0672 74.0023 61.1037 74.0426C61.1391 74.0838 61.144 74.1365 61.1184 74.1998C61.0599 74.3205 60.9429 74.4087 60.7674 74.4643C60.5943 74.5179 60.3262 74.5448 59.963 74.5448H55.9752C55.6706 74.5448 55.4475 74.5064 55.3074 74.4298C55.1684 74.3512 55.1209 74.2477 55.166 74.1193C55.2147 74.01 55.3391 73.9123 55.5365 73.8279C55.712 73.757 55.8582 73.6708 55.9752 73.5711C56.0922 73.4695 56.191 73.3066 56.2726 73.0843L58.9295 66.2149C58.9648 66.1335 58.9831 66.0654 58.9831 66.0118C58.9831 65.9102 58.9502 65.8268 58.8856 65.7626C58.8235 65.6993 58.7394 65.6351 58.6321 65.5709C58.5176 65.4971 58.4335 65.4329 58.3786 65.3793C58.3262 65.3237 58.3177 65.2489 58.3542 65.1569C58.4249 64.9451 58.793 64.7611 59.456 64.6049C60.1214 64.4497 60.8173 64.3711 61.5425 64.3711C62.2177 64.3711 62.7137 64.4708 63.0294 64.6701C63.3438 64.8675 63.5022 65.1397 63.5022 65.4866C63.5022 65.6993 63.4608 65.9006 63.3804 66.0923L61.8545 70.0023H62.4346C62.665 70.0023 62.8539 69.9476 63.0001 69.8374C63.1464 69.7282 63.2597 69.5672 63.3414 69.3544C63.6339 68.675 64.0117 68.1565 64.4772 67.7981C64.9452 67.4406 65.5644 67.2614 66.3346 67.2614Z" fill="#44AD33" fill-opacity="0.4"/>
<path d="M77.1909 65.3755C78.4254 65.3755 79.3773 65.5882 80.0476 66.0118C80.7204 66.4335 81.0567 66.9932 81.0567 67.6908C81.0567 67.9649 81.0043 68.2534 80.9007 68.5572C80.5717 69.4752 79.9269 70.1547 78.9654 70.5965C78.0025 71.0364 76.7862 71.2558 75.314 71.2558H73.5102L72.9155 72.9195C72.8923 72.976 72.8814 73.0498 72.8814 73.1418C72.8814 73.2702 72.9179 73.3757 72.9935 73.46C73.0715 73.5424 73.186 73.6382 73.3396 73.7475C73.4664 73.8395 73.5517 73.9085 73.598 73.9545C73.6467 74.0005 73.6711 74.0561 73.6711 74.1193C73.6711 74.2755 73.576 74.3857 73.3884 74.449C73.2031 74.5132 72.9301 74.5448 72.5694 74.5448H68.1721C67.8699 74.5448 67.6432 74.5017 67.4896 74.4145C67.3373 74.3282 67.2849 74.2065 67.3336 74.0503C67.3568 73.966 67.4006 73.8999 67.4652 73.851C67.5274 73.8002 67.6237 73.7427 67.7529 73.6785C67.9503 73.5865 68.1087 73.4907 68.2257 73.391C68.3427 73.2894 68.4354 73.1322 68.5036 72.9195L70.6437 66.9893C70.6888 66.8695 70.712 66.7545 70.712 66.6443C70.712 66.5427 70.69 66.4565 70.6486 66.3875C70.6096 66.3185 70.5535 66.238 70.4829 66.146C70.378 66.0291 70.3269 65.9332 70.3269 65.8585C70.3269 65.8307 70.3378 65.7809 70.361 65.709C70.4061 65.5892 70.5072 65.5039 70.6632 65.4522C70.8217 65.4014 71.0654 65.3755 71.3945 65.3755H77.1909ZM76.7326 68.308C76.8618 67.9687 76.9276 67.6707 76.9276 67.4148C76.9276 66.8839 76.6119 66.6175 75.9819 66.6175H75.1921L73.949 70.0177H74.7192C75.2092 70.0177 75.6089 69.8969 75.9185 69.6535C76.2268 69.4082 76.4986 68.9597 76.7326 68.308Z" fill="#44AD33" fill-opacity="0.4"/>
<path d="M85.5197 67.2615C86.8615 67.2615 87.9352 67.457 88.7421 67.848C89.5477 68.239 89.9511 68.8331 89.9511 69.6305C89.9511 69.9352 89.8792 70.2783 89.7366 70.6616L89.0199 72.563C89.0102 72.5994 89.0053 72.6454 89.0053 72.701C89.0053 72.8466 89.0797 72.9195 89.2296 72.9195C89.3685 72.9195 89.4879 72.8725 89.5854 72.7776C89.6854 72.6808 89.7536 72.632 89.7902 72.632C89.8487 72.632 89.8974 72.6646 89.9364 72.7278C89.9779 72.792 89.9998 72.8648 89.9998 72.9463C90.012 73.1945 89.8926 73.4475 89.6391 73.7053C89.388 73.9612 89.0541 74.172 88.6348 74.3378C88.2156 74.5046 87.7537 74.587 87.2503 74.587C86.6458 74.587 86.1266 74.5007 85.6952 74.3263C85.2625 74.15 84.9652 73.8922 84.8031 73.552C84.4521 73.8845 84.0377 74.1404 83.5599 74.3186C83.0822 74.4978 82.5679 74.587 82.0194 74.587C81.3979 74.587 80.8787 74.494 80.4594 74.3071C80.0402 74.1183 79.7282 73.874 79.5234 73.575C79.3187 73.276 79.2163 72.9616 79.2163 72.632C79.2163 72.4844 79.2346 72.3426 79.2699 72.2065C79.4552 71.573 79.8598 71.0948 80.4838 70.7728C81.1102 70.4508 81.8549 70.2898 82.7166 70.2898C83.6842 70.2898 84.6373 70.4106 85.5733 70.6501L86.0121 69.7416C86.1607 69.3564 86.2363 69.0574 86.2363 68.8446C86.2266 68.6252 86.1339 68.4603 85.9584 68.3501C85.7829 68.2409 85.5148 68.1853 85.1541 68.1853C85.2223 68.331 85.2564 68.4824 85.2564 68.6376C85.2564 68.9778 85.0919 69.2721 84.7641 69.5193C84.4387 69.7675 83.9719 69.8911 83.3649 69.8911C82.7921 69.8911 82.3461 69.7934 82.0243 69.596C81.705 69.3995 81.5466 69.1542 81.5466 68.86C81.5466 68.4 81.8732 68.0195 82.5264 67.7176C83.1797 67.4138 84.1766 67.2615 85.5197 67.2615ZM84.5398 71.4321C84.2107 71.4321 83.9451 71.5318 83.7403 71.7311C83.538 71.9286 83.4381 72.1413 83.4381 72.3713C83.4381 72.517 83.4819 72.6358 83.5697 72.7278C83.6574 72.8198 83.7817 72.8658 83.9451 72.8658C84.0937 72.8658 84.2595 72.8179 84.4423 72.7201C84.6239 72.6233 84.7555 72.4786 84.8372 72.287L85.2028 71.4743C85.0042 71.4465 84.7836 71.4321 84.5398 71.4321Z" fill="#44AD33" fill-opacity="0.4"/>
<path d="M99.5565 67.2615C100.07 67.2615 100.48 67.4254 100.79 67.7522C101.102 68.077 101.258 68.5188 101.258 69.0785C101.258 69.5673 101.146 70.0905 100.922 70.6502C100.489 71.7772 99.7966 72.8419 98.8448 73.8433C97.8954 74.8419 96.8046 75.645 95.5736 76.2507C94.3415 76.8563 93.113 77.1592 91.8881 77.1592C91.2836 77.1592 90.762 77.0758 90.3233 76.91C89.8845 76.7461 89.5518 76.5267 89.3239 76.2507C89.0972 75.9766 88.9826 75.6833 88.9826 75.369C88.9826 75.2329 89.0119 75.0825 89.0704 74.9167C89.1776 74.6579 89.3531 74.4624 89.5969 74.3263C89.8406 74.1883 90.1331 74.1193 90.4744 74.1193C91.0106 74.1193 91.4506 74.264 91.7955 74.5525C92.1392 74.841 92.3574 75.2368 92.4488 75.7408C93.1959 75.715 93.8845 75.4629 94.5158 74.9857C93.921 74.9033 93.4798 74.7451 93.1946 74.5103C92.9082 74.2755 92.7132 73.9114 92.6096 73.4178L91.9076 70.0445C91.8711 69.871 91.8211 69.7493 91.7565 69.6803C91.6944 69.6113 91.6103 69.5768 91.503 69.5768C91.4214 69.5768 91.3251 69.6094 91.2154 69.6727C91.1045 69.7369 91.0265 69.7685 90.9814 69.7685C90.8863 69.7685 90.84 69.6909 90.84 69.5347C90.84 69.4072 90.8693 69.2692 90.9278 69.1207C91.1386 68.5974 91.5286 68.1547 92.0978 67.7943C92.6694 67.4321 93.336 67.25 94.0965 67.25C94.8436 67.25 95.3945 67.4254 95.7491 67.7752C96.1062 68.123 96.3366 68.6587 96.4414 69.3813L96.9679 72.4097C97.0032 72.6397 97.1068 72.7547 97.2799 72.7547C97.4907 72.7547 97.7357 72.6071 98.016 72.31C98.2951 72.011 98.5693 71.5855 98.8399 71.0335C98.4889 70.7863 98.2183 70.5026 98.0306 70.1825C97.8454 69.8605 97.7528 69.5155 97.7528 69.1475C97.7528 68.8638 97.7991 68.607 97.8941 68.377C98.0331 68.0119 98.2512 67.7349 98.5474 67.5452C98.846 67.3564 99.1824 67.2615 99.5565 67.2615Z" fill="#44AD33" fill-opacity="0.4"/>
<path d="M29.1407 69.3094C28.7081 70.5955 27.9719 71.6353 26.9323 72.4297C25.8952 73.2223 24.6703 73.7331 23.2566 73.9631C23.7112 74.2391 24.2194 74.3771 24.7825 74.3771C25.0713 74.3771 25.3297 74.333 25.5576 74.2467C25.7843 74.1595 26.011 74.0474 26.2352 73.9094C26.2572 73.8921 26.3205 73.8538 26.4253 73.7944C26.5289 73.7331 26.6228 73.7024 26.7081 73.7024C26.8117 73.7024 26.908 73.7963 26.9957 73.9822C27.0835 74.171 27.1273 74.4039 27.1273 74.6799C27.1273 74.9559 27.0798 75.2175 26.986 75.4657C26.8105 75.9411 26.4985 76.311 26.05 76.5774C25.6015 76.8457 25.0372 76.9799 24.3583 76.9799C22.9117 76.9799 21.8977 76.2861 21.3163 74.8984L20.9653 74.0896C19.6905 74.0148 18.6948 73.7053 17.977 73.1581C17.2616 72.6118 16.9045 71.8614 16.9045 70.9079C16.9045 70.4402 17.0032 69.9074 17.2018 69.3094C17.5394 68.2926 18.072 67.4291 18.8008 66.7181C19.5321 66.0051 20.4011 65.4684 21.409 65.1081C22.4193 64.7458 23.5259 64.5637 24.7288 64.5637C26.1974 64.5637 27.3467 64.8378 28.1755 65.3841C29.0042 65.9284 29.4186 66.7142 29.4186 67.7416C29.4186 68.2274 29.326 68.7497 29.1407 69.3094ZM24.5192 69.4091C24.9738 68.1421 25.2017 67.2509 25.2017 66.7372C25.2017 66.444 25.1359 66.2331 25.0067 66.1047C24.88 65.9744 24.6813 65.9092 24.412 65.9092C24.061 65.9092 23.7453 66.0204 23.4662 66.2427C23.1859 66.4631 22.908 66.8235 22.6326 67.3237C22.3596 67.8221 22.0647 68.5178 21.7502 69.4091C21.2847 70.6923 21.0531 71.5778 21.0531 72.0656C21.0531 72.3492 21.1165 72.5553 21.2432 72.6827C21.3724 72.8111 21.5772 72.8744 21.8575 72.8744C22.2085 72.8744 22.5229 72.7632 22.8032 72.5409C23.0823 72.3166 23.3553 71.9563 23.6222 71.4599C23.8916 70.9644 24.1902 70.2811 24.5192 69.4091Z" fill="#44AD33"/>
<path d="M38.9931 72.0348C38.9699 72.1096 38.959 72.1652 38.959 72.2035C38.959 72.2677 38.9785 72.3175 39.0175 72.353C39.0589 72.3894 39.1162 72.4067 39.1881 72.4067C39.327 72.4067 39.4465 72.3597 39.544 72.2648C39.6439 72.168 39.7109 72.1192 39.7438 72.1192C39.8023 72.1192 39.8523 72.1498 39.895 72.2112C39.9364 72.2706 39.9583 72.3405 39.9583 72.422C39.9681 72.6807 39.8486 72.9357 39.6025 73.1887C39.3587 73.4397 39.0138 73.6477 38.569 73.8135C38.1265 73.9764 37.633 74.0588 37.087 74.0588C36.3971 74.0588 35.8487 73.9486 35.4392 73.7292C35.0297 73.5097 34.7665 73.2212 34.6495 72.8628C34.2302 73.2308 33.7671 73.5097 33.2601 73.6985C32.7531 73.8854 32.2363 73.9783 31.7098 73.9783C30.8933 73.9783 30.2083 73.8202 29.6526 73.503C29.0993 73.1867 28.8238 72.743 28.8238 72.1728C28.8238 71.9179 28.8823 71.6515 28.9993 71.3755L30.1157 68.5005C30.151 68.4162 30.1693 68.3472 30.1693 68.2935C30.1693 68.1919 30.1401 68.1114 30.0816 68.052C30.0231 67.9935 29.9353 67.9312 29.8183 67.8642C29.7013 67.7932 29.6197 67.73 29.5746 67.6763C29.5283 67.6207 29.5234 67.546 29.56 67.454C29.6282 67.2422 29.9938 67.0553 30.6568 66.8943C31.3223 66.7333 32.0182 66.6528 32.7433 66.6528C33.4185 66.6528 33.9145 66.7544 34.2302 66.9557C34.5446 67.1579 34.7031 67.4339 34.7031 67.7837C34.7031 67.9935 34.6616 68.1957 34.5812 68.3893L33.4795 71.2528C33.4331 71.3525 33.4112 71.4483 33.4112 71.5403C33.4112 71.6687 33.4563 71.7655 33.5477 71.8317C33.6415 71.8959 33.7646 71.9275 33.9182 71.9275C34.1388 71.9275 34.3192 71.8777 34.4593 71.778C34.5983 71.6764 34.7384 71.5049 34.8786 71.2643L35.9462 68.5005C35.9815 68.4162 35.9998 68.3472 35.9998 68.2935C35.9998 68.1919 35.9706 68.1114 35.9121 68.052C35.8536 67.9935 35.7719 67.9312 35.6683 67.8642C35.5513 67.7932 35.4685 67.73 35.4197 67.6763C35.3734 67.6207 35.3685 67.546 35.4051 67.454C35.4636 67.2422 35.8243 67.0553 36.4873 66.8943C37.1528 66.7333 37.8487 66.6528 38.5738 66.6528C39.249 66.6528 39.7487 66.7544 40.0705 66.9557C40.3922 67.1579 40.5531 67.4291 40.5531 67.7683C40.5531 67.9427 40.5055 68.1497 40.4117 68.3893L38.9931 72.0348Z" fill="#44AD33"/>
<path d="M44.7712 66.6529C45.4464 66.6529 45.9424 66.7545 46.258 66.9557C46.5725 67.1579 46.7309 67.4339 46.7309 67.7837C46.7309 67.9936 46.6895 68.1958 46.609 68.3894L44.9954 72.5064C44.9625 72.6166 44.9467 72.7124 44.9467 72.7939C44.9467 72.9146 44.9735 73.0085 45.0295 73.0775C45.088 73.1446 45.1709 73.2107 45.2782 73.2769C45.3586 73.3411 45.4159 73.3938 45.4488 73.434C45.4841 73.4752 45.4902 73.528 45.4683 73.5912C45.4098 73.712 45.2928 73.8001 45.1173 73.8557C44.9442 73.9094 44.6761 73.9362 44.3129 73.9362H40.3252C40.0205 73.9362 39.7974 73.8979 39.6573 73.8212C39.5184 73.7426 39.4708 73.6391 39.5159 73.5107C39.5647 73.4015 39.689 73.3037 39.8864 73.2194C40.0619 73.1485 40.2057 73.0622 40.3203 72.9625C40.4373 72.861 40.5372 72.698 40.6225 72.4757L42.1435 68.5005C42.1789 68.4162 42.1972 68.3472 42.1972 68.2935C42.1972 68.192 42.1679 68.1115 42.1094 68.052C42.0509 67.9936 41.9632 67.9313 41.8462 67.8642C41.7292 67.7933 41.6463 67.73 41.5975 67.6764C41.5512 67.6208 41.5464 67.546 41.5829 67.454C41.6536 67.2422 42.0217 67.0554 42.6847 66.8944C43.3501 66.7334 44.046 66.6529 44.7712 66.6529ZM45.9412 63.613C46.3958 63.613 46.7748 63.7309 47.077 63.9657C47.3817 64.1986 47.5353 64.4851 47.5353 64.8244C47.5353 65.062 47.4549 65.2959 47.2964 65.5259C47.1404 65.7559 46.9186 65.9427 46.6334 66.0855C46.347 66.2264 46.0289 66.2964 45.6779 66.2964C45.2355 66.2964 44.865 66.1804 44.5664 65.9475C44.2703 65.7127 44.1155 65.4205 44.1033 65.0697C44.1033 64.8426 44.1776 64.6164 44.3275 64.3912C44.4799 64.167 44.6956 63.981 44.9759 63.8354C45.2587 63.6878 45.5804 63.613 45.9412 63.613Z" fill="#44AD33"/>
<path d="M52.4898 66.584C53.2015 66.584 53.8255 66.6645 54.3618 66.8255C54.898 66.9865 55.3136 67.2079 55.6098 67.4887C55.9084 67.7675 56.0583 68.0771 56.0583 68.4163C56.0583 68.7843 55.8974 69.0872 55.5756 69.3248C55.2563 69.5625 54.8225 69.6813 54.274 69.6813C53.711 69.6813 53.2722 69.5692 52.9578 69.344C52.6458 69.1197 52.4898 68.815 52.4898 68.4317C52.4898 68.2477 52.5239 68.055 52.5921 67.8528C52.101 67.9525 51.6659 68.1518 51.2856 68.4508C50.9078 68.7498 50.6543 69.1427 50.5251 69.6277C50.4569 69.9037 50.4228 70.1519 50.4228 70.3713C50.4228 70.8677 50.5958 71.2444 50.9444 71.5022C51.2954 71.758 51.7975 71.8855 52.4508 71.8855C52.8237 71.8855 53.1442 71.8567 53.4111 71.7973C53.6805 71.736 53.9571 71.6555 54.2399 71.5558C54.4702 71.4638 54.6396 71.4178 54.7469 71.4178C54.8151 71.4178 54.8602 71.4293 54.8834 71.4523C54.909 71.4753 54.9224 71.5242 54.9224 71.598C54.9321 71.9353 54.753 72.2909 54.3861 72.6637C54.0181 73.0345 53.5099 73.346 52.8603 73.599C52.2131 73.852 51.488 73.9785 50.686 73.9785C49.8439 73.9785 49.0992 73.8577 48.4533 73.6143C47.8061 73.369 47.304 73.0202 46.9469 72.5678C46.5886 72.1136 46.4106 71.5827 46.4106 70.977C46.4106 70.6933 46.457 70.3771 46.552 70.0263C46.8665 68.8897 47.5636 68.032 48.6434 67.4542C49.722 66.8744 51.0041 66.584 52.4898 66.584Z" fill="#44AD33"/>
<path d="M65.5607 66.653C66.2262 66.653 66.7612 66.7987 67.1646 67.09C67.5668 67.3794 67.7691 67.7292 67.7691 68.1404C67.7691 68.5831 67.5997 68.9281 67.2621 69.1754C66.9233 69.4207 66.4797 69.5434 65.9312 69.5434C65.4401 69.5434 65.0598 69.4456 64.7905 69.2482C64.5236 69.0517 64.3956 68.8294 64.4054 68.5812C64.2908 68.5639 64.1921 68.6004 64.108 68.6924C64.0263 68.7844 63.9398 68.9636 63.8496 69.229C63.7911 69.4034 63.679 69.5644 63.5132 69.712C64.3091 69.758 64.8989 69.8999 65.2829 70.1375C65.6692 70.3752 65.863 70.6819 65.863 71.0575C65.863 71.2415 65.8203 71.4255 65.7362 71.6095L65.5997 72.035C65.5729 72.081 65.5607 72.1414 65.5607 72.2152C65.5607 72.3436 65.6363 72.4069 65.7899 72.4069C65.9288 72.4069 66.0482 72.3599 66.1457 72.265C66.2457 72.1682 66.3139 72.1194 66.3505 72.1194C66.409 72.1194 66.4553 72.15 66.4919 72.2114C66.5272 72.2708 66.5455 72.3407 66.5455 72.4222C66.5552 72.6886 66.4504 72.9474 66.2335 73.2004C66.019 73.4534 65.6924 73.6604 65.2536 73.8214C64.8173 73.9795 64.2908 74.059 63.6741 74.059C62.9258 74.059 62.3042 73.9124 61.807 73.6182C61.3122 73.3249 61.066 72.9397 61.066 72.4644C61.066 72.2909 61.1111 72.0925 61.2025 71.8702L61.5389 71.184C61.5937 71.0182 61.6217 70.8984 61.6217 70.8237C61.6217 70.7068 61.5705 70.6205 61.4706 70.5669C61.3731 70.5113 61.2195 70.4825 61.0124 70.4825H60.6614L59.8716 72.5065C59.8387 72.6167 59.8229 72.7126 59.8229 72.794C59.8229 72.9148 59.8521 73.0087 59.9106 73.0777C59.9691 73.1448 60.0495 73.2109 60.1544 73.277C60.2348 73.3412 60.2933 73.3939 60.3299 73.4342C60.3652 73.4754 60.3701 73.5281 60.3445 73.5914C60.286 73.7121 60.169 73.8003 59.9935 73.8559C59.8204 73.9095 59.5523 73.9364 59.1891 73.9364H55.2014C54.8967 73.9364 54.6736 73.898 54.5335 73.8214C54.3945 73.7428 54.347 73.6393 54.3921 73.5109C54.4409 73.4016 54.5652 73.3039 54.7626 73.2195C54.9381 73.1486 55.0844 73.0624 55.2014 72.9627C55.3184 72.8611 55.4171 72.6982 55.4987 72.4759L58.1556 65.6065C58.1909 65.5251 58.2092 65.457 58.2092 65.4034C58.2092 65.3018 58.1763 65.2184 58.1117 65.1542C58.0496 65.0909 57.9655 65.0267 57.8582 64.9625C57.7437 64.8887 57.6596 64.8245 57.6047 64.7709C57.5523 64.7153 57.5438 64.6405 57.5804 64.5485C57.651 64.3367 58.0191 64.1527 58.6821 63.9965C59.3475 63.8413 60.0434 63.7627 60.7686 63.7627C61.4438 63.7627 61.9398 63.8624 62.2555 64.0617C62.5699 64.2591 62.7284 64.5313 62.7284 64.8782C62.7284 65.0909 62.6869 65.2922 62.6065 65.4839L61.0806 69.3939H61.6607C61.8911 69.3939 62.08 69.3392 62.2262 69.229C62.3725 69.1198 62.4858 68.9588 62.5675 68.746C62.86 68.0666 63.2378 67.5481 63.7034 67.1897C64.1714 66.8322 64.7905 66.653 65.5607 66.653Z" fill="#44AD33"/>
<path d="M76.417 64.7668C77.6516 64.7668 78.6034 64.9796 79.2737 65.4032C79.9465 65.8248 80.2829 66.3845 80.2829 67.0822C80.2829 67.3563 80.2304 67.6447 80.1269 67.9485C79.7978 68.8666 79.1531 69.5461 78.1915 69.9878C77.2287 70.4277 76.0124 70.6472 74.5401 70.6472H72.7364L72.1416 72.3108C72.1184 72.3674 72.1075 72.4412 72.1075 72.5332C72.1075 72.6616 72.144 72.767 72.2196 72.8513C72.2976 72.9338 72.4122 73.0296 72.5657 73.1388C72.6925 73.2308 72.7778 73.2998 72.8241 73.3458C72.8729 73.3918 72.8972 73.4474 72.8972 73.5107C72.8972 73.6669 72.8022 73.7771 72.6145 73.8403C72.4292 73.9046 72.1562 73.9362 71.7955 73.9362H67.3982C67.096 73.9362 66.8693 73.8931 66.7157 73.8058C66.5634 73.7196 66.511 73.5979 66.5597 73.4417C66.5829 73.3573 66.6268 73.2912 66.6914 73.2423C66.7535 73.1916 66.8498 73.1341 66.979 73.0698C67.1764 72.9778 67.3349 72.882 67.4519 72.7823C67.5689 72.6808 67.6615 72.5236 67.7297 72.3108L69.8699 66.3807C69.9149 66.2609 69.9381 66.1459 69.9381 66.0357C69.9381 65.9341 69.9162 65.8478 69.8747 65.7788C69.8357 65.7098 69.7797 65.6293 69.709 65.5373C69.6042 65.4204 69.553 65.3246 69.553 65.2498C69.553 65.2221 69.5639 65.1722 69.5871 65.1003C69.6322 64.9806 69.7334 64.8953 69.8894 64.8435C70.0478 64.7927 70.2915 64.7668 70.6206 64.7668H76.417ZM75.9587 67.6993C76.0879 67.3601 76.1537 67.0621 76.1537 66.8062C76.1537 66.2753 75.8381 66.0088 75.208 66.0088H74.4182L73.1751 69.409H73.9454C74.4353 69.409 74.835 69.2883 75.1446 69.0448C75.4529 68.7995 75.7247 68.351 75.9587 67.6993Z" fill="#44AD33"/>
<path d="M84.7458 66.6528C86.0876 66.6528 87.1613 66.8483 87.9682 67.2393C88.7737 67.6303 89.1772 68.2245 89.1772 69.0218C89.1772 69.3266 89.1052 69.6697 88.9627 70.053L88.246 71.9543C88.2363 71.9907 88.2314 72.0367 88.2314 72.0923C88.2314 72.238 88.3057 72.3108 88.4557 72.3108C88.5946 72.3108 88.714 72.2639 88.8115 72.169C88.9115 72.0722 88.9797 72.0233 89.0163 72.0233C89.0748 72.0233 89.1235 72.0559 89.1625 72.1192C89.204 72.1834 89.2259 72.2562 89.2259 72.3377C89.2381 72.5859 89.1187 72.8389 88.8652 73.0967C88.6141 73.3525 88.2802 73.5634 87.8609 73.7292C87.4417 73.8959 86.9797 73.9783 86.4764 73.9783C85.8719 73.9783 85.3527 73.8921 84.9213 73.7177C84.4886 73.5413 84.1912 73.2835 84.0292 72.9433C83.6782 73.2759 83.2638 73.5317 82.786 73.71C82.3083 73.8892 81.794 73.9783 81.2455 73.9783C80.624 73.9783 80.1048 73.8854 79.6855 73.6985C79.2663 73.5097 78.9543 73.2653 78.7495 72.9663C78.5448 72.6673 78.4424 72.353 78.4424 72.0233C78.4424 71.8757 78.4607 71.7339 78.496 71.5978C78.6813 70.9644 79.0859 70.4862 79.7099 70.1642C80.3363 69.8422 81.081 69.6812 81.9427 69.6812C82.9103 69.6812 83.8634 69.8019 84.7994 70.0415L85.2382 69.133C85.3868 68.7477 85.4624 68.4487 85.4624 68.236C85.4527 68.0165 85.36 67.8517 85.1845 67.7415C85.009 67.6322 84.7409 67.5767 84.3802 67.5767C84.4484 67.7223 84.4825 67.8737 84.4825 68.029C84.4825 68.3692 84.318 68.6634 83.9902 68.9107C83.6647 69.1589 83.198 69.2825 82.591 69.2825C82.0182 69.2825 81.5722 69.1847 81.2504 68.9873C80.9311 68.7909 80.7727 68.5455 80.7727 68.2513C80.7727 67.7913 81.0993 67.4109 81.7525 67.109C82.4058 66.8052 83.4027 66.6528 84.7458 66.6528ZM83.7659 70.8235C83.4368 70.8235 83.1712 70.9232 82.9664 71.1225C82.7641 71.3199 82.6642 71.5327 82.6642 71.7627C82.6642 71.9083 82.708 72.0272 82.7958 72.1192C82.8835 72.2112 83.0078 72.2572 83.1712 72.2572C83.3198 72.2572 83.4856 72.2092 83.6684 72.1115C83.85 72.0147 83.9816 71.87 84.0633 71.6783L84.4289 70.8657C84.2302 70.8379 84.0097 70.8235 83.7659 70.8235Z" fill="#44AD33"/>
<path d="M98.7826 66.6529C99.2957 66.6529 99.7065 66.8167 100.016 67.1435C100.328 67.4684 100.484 67.9102 100.484 68.4699C100.484 68.9586 100.372 69.4819 100.148 70.0415C99.715 71.1685 99.0227 72.2332 98.0709 73.2347C97.1215 74.2333 96.0307 75.0364 94.7998 75.642C93.5676 76.2477 92.3391 76.5505 91.1143 76.5505C90.5098 76.5505 89.9881 76.4671 89.5494 76.3014C89.1106 76.1375 88.7779 75.918 88.55 75.642C88.3233 75.3679 88.2088 75.0747 88.2088 74.7604C88.2088 74.6243 88.238 74.4738 88.2965 74.308C88.4038 74.0493 88.5793 73.8538 88.823 73.7177C89.0668 73.5797 89.3593 73.5107 89.7005 73.5107C90.2368 73.5107 90.6767 73.6554 91.0216 73.9439C91.3653 74.2323 91.5835 74.6281 91.6749 75.1322C92.422 75.1063 93.1106 74.8543 93.7419 74.377C93.1471 74.2946 92.706 74.1365 92.4208 73.9017C92.1344 73.6669 91.9394 73.3027 91.8358 72.8092L91.1338 69.4359C91.0972 69.2624 91.0472 69.1407 90.9826 69.0717C90.9205 69.0027 90.8364 68.9682 90.7291 68.9682C90.6475 68.9682 90.5512 69.0008 90.4415 69.064C90.3306 69.1282 90.2526 69.1599 90.2075 69.1599C90.1125 69.1599 90.0661 69.0822 90.0661 68.926C90.0661 68.7986 90.0954 68.6606 90.1539 68.512C90.3647 67.9888 90.7547 67.546 91.3239 67.1857C91.8955 66.8234 92.5621 66.6414 93.3226 66.6414C94.0697 66.6414 94.6206 66.8167 94.9753 67.1665C95.3324 67.5144 95.5627 68.0501 95.6675 68.7727L96.194 71.801C96.2294 72.031 96.333 72.146 96.506 72.146C96.7169 72.146 96.9618 71.9984 97.2421 71.7014C97.5212 71.4024 97.7955 70.9769 98.066 70.4249C97.715 70.1776 97.4445 69.8939 97.2568 69.5739C97.0715 69.2519 96.9789 68.9069 96.9789 68.5389C96.9789 68.2552 97.0252 67.9984 97.1203 67.7684C97.2592 67.4032 97.4774 67.1263 97.7735 66.9365C98.0721 66.7477 98.4085 66.6529 98.7826 66.6529Z" fill="#44AD33"/>
<path d="M39.5457 83.7803C39.7236 83.7803 39.8894 83.7602 40.0429 83.719C40.1953 83.6759 40.3232 83.6174 40.428 83.5427C40.467 83.512 40.5036 83.4967 40.5402 83.4967C40.5792 83.4967 40.6096 83.512 40.6328 83.5427L41.0667 84.041C41.0886 84.064 41.1008 84.0908 41.1008 84.1215C41.1008 84.1502 41.0837 84.1819 41.052 84.2173C40.8339 84.3783 40.5743 84.5039 40.272 84.593C39.9698 84.6821 39.6578 84.7272 39.336 84.7272C38.9582 84.7272 38.634 84.6725 38.361 84.5623C38.088 84.4531 37.8699 84.2997 37.7078 84.1023C37.5152 83.8522 37.4202 83.557 37.4202 83.2168C37.4202 83.1172 37.4275 83.0137 37.4445 82.9063C37.4738 82.7051 37.5372 82.5029 37.6347 82.3007C37.8029 81.9509 38.0807 81.6701 38.4683 81.4573C38.8583 81.2455 39.2922 81.1392 39.7699 81.1392C40.322 81.1392 40.7461 81.2791 41.0423 81.557C41.3372 81.833 41.5005 82.2202 41.5298 82.7185C41.5298 82.8977 41.5249 83.0347 41.5152 83.1287C41.5079 83.2082 41.4518 83.2475 41.3445 83.2475H38.8388C38.7998 83.2475 38.7803 83.2647 38.7803 83.2973C38.7803 83.3539 38.7876 83.3999 38.8047 83.4353C38.8437 83.5484 38.9265 83.6337 39.0533 83.6922C39.1825 83.7516 39.347 83.7803 39.5457 83.7803ZM39.5895 82.1013C39.3165 82.1013 39.1081 82.2106 38.9655 82.4272L38.9168 82.5307L38.907 82.5498C38.907 82.5604 38.9131 82.569 38.9265 82.5767C38.9424 82.5824 38.9558 82.5843 38.9655 82.5843H40.0965C40.1185 82.5843 40.1355 82.5795 40.1453 82.569C40.1575 82.5565 40.1611 82.5441 40.155 82.5307L40.1355 82.4425C40.1087 82.3352 40.049 82.2527 39.9552 82.1933C39.8638 82.132 39.7419 82.1013 39.5895 82.1013Z" fill="#1BB402"/>
<path d="M43.6478 83.2016C43.6015 83.2016 43.5674 83.192 43.5454 83.1709C43.5223 83.1479 43.5137 83.1192 43.5211 83.0827L43.6283 82.3697C43.6344 82.3343 43.6527 82.3046 43.6819 82.2816C43.7136 82.2586 43.7526 82.2471 43.7989 82.2471H46.5192C46.5643 82.2471 46.5984 82.2586 46.6216 82.2816C46.6435 82.3046 46.652 82.3343 46.6459 82.3697L46.5338 83.0827C46.5301 83.1192 46.5119 83.1479 46.4802 83.1709C46.4473 83.192 46.4083 83.2016 46.3632 83.2016H43.6478Z" fill="#1BB402"/>
<path d="M49.6024 84.6734C49.511 84.6734 49.4622 84.6409 49.4561 84.5738L48.7834 81.3346V81.3001C48.7834 81.234 48.8297 81.2004 48.9247 81.2004H50.0362C50.0813 81.2004 50.1167 81.211 50.1435 81.2311C50.1691 81.2493 50.1825 81.2752 50.1825 81.3078L50.397 83.0596C50.397 83.0778 50.4043 83.0864 50.4214 83.0864C50.4409 83.0864 50.4518 83.0778 50.4555 83.0596L51.2452 81.3116C51.2769 81.2407 51.3391 81.2043 51.4305 81.2043H52.4055C52.4896 81.2043 52.542 81.2407 52.5615 81.3116L52.8345 83.0749C52.8369 83.0931 52.8455 83.1018 52.8589 83.1018C52.8747 83.1018 52.8857 83.0931 52.893 83.0749L53.712 81.3078C53.7412 81.2369 53.801 81.2004 53.8924 81.2004L55.0039 81.2043C55.0819 81.2043 55.1209 81.2301 55.1209 81.2809C55.1209 81.2944 55.116 81.3145 55.1062 81.3423L53.4049 84.5738C53.3756 84.6409 53.3147 84.6734 53.2245 84.6734H52.0984C52.007 84.6734 51.9582 84.6409 51.9521 84.5738L51.6596 83.0749C51.656 83.0519 51.645 83.0404 51.6255 83.0404C51.6084 83.0404 51.5962 83.0519 51.5865 83.0749L50.9089 84.5661C50.8796 84.638 50.8187 84.6734 50.7285 84.6734H49.6024Z" fill="#1BB402"/>
<path d="M59.7836 81.3193C59.8031 81.2407 59.8591 81.2005 59.9542 81.2005H61.0316C61.0767 81.2005 61.1108 81.212 61.1339 81.235C61.1559 81.2561 61.1656 81.2839 61.1632 81.3193L60.6562 84.5508C60.6489 84.5872 60.6318 84.616 60.6026 84.639C60.5758 84.662 60.5404 84.6735 60.4953 84.6735H59.4179C59.3716 84.6735 59.3363 84.662 59.3107 84.639C59.2839 84.616 59.2741 84.5872 59.2814 84.5508L59.3058 84.3898C59.3119 84.3697 59.307 84.3572 59.2912 84.3515C59.2778 84.3467 59.2632 84.3534 59.2473 84.3707C58.9902 84.6083 58.6574 84.7272 58.2479 84.7272C57.8872 84.7272 57.5679 84.6313 57.2924 84.4397C57.0158 84.2461 56.8464 83.9969 56.7854 83.6922C56.7562 83.5494 56.7416 83.4219 56.7416 83.3088C56.7416 83.2197 56.7525 83.0894 56.7757 82.9178C56.8208 82.614 56.9232 82.3332 57.0828 82.0745C57.2547 81.7966 57.4948 81.5714 57.8043 81.3998C58.1163 81.2264 58.449 81.1392 58.8037 81.1392C59.229 81.1392 59.5276 81.2427 59.7007 81.4497C59.7104 81.4679 59.7226 81.4746 59.7397 81.4688C59.7592 81.464 59.7689 81.4497 59.7689 81.4267L59.7836 81.3193ZM59.2961 83.489C59.4155 83.3385 59.4935 83.1555 59.5301 82.9408C59.5398 82.8335 59.5447 82.7597 59.5447 82.7185C59.5447 82.5709 59.5203 82.4463 59.4716 82.3467C59.3765 82.1962 59.2278 82.1205 59.0231 82.1205C58.8086 82.1205 58.6331 82.1991 58.4966 82.3543C58.3759 82.4952 58.293 82.6907 58.2479 82.9408C58.2345 83.0309 58.2284 83.0932 58.2284 83.1287C58.2284 83.2724 58.254 83.3951 58.3064 83.4967C58.3869 83.6634 58.5417 83.7458 58.7696 83.7458C58.9841 83.7458 59.1596 83.6605 59.2961 83.489Z" fill="#1BB402"/>
<path d="M63.0911 84.6735C63.0448 84.6735 63.0095 84.662 62.9839 84.639C62.9571 84.616 62.9473 84.5872 62.9546 84.5508L63.6566 80.0888C63.6591 80.0533 63.6774 80.0256 63.7103 80.0045C63.742 79.9815 63.781 79.97 63.8273 79.97H64.9046C64.9497 79.97 64.9839 79.9815 65.007 80.0045C65.029 80.0256 65.0375 80.0533 65.0314 80.0888L64.3391 84.5508C64.3221 84.6332 64.266 84.6735 64.1685 84.6735H63.0911Z" fill="#1BB402"/>
<path d="M66.7907 84.6735C66.7444 84.6735 66.7091 84.662 66.6835 84.639C66.6567 84.616 66.6469 84.5872 66.6542 84.5508L67.3562 80.0888C67.3587 80.0533 67.377 80.0256 67.4099 80.0045C67.4416 79.9815 67.4806 79.97 67.5269 79.97H68.6042C68.6493 79.97 68.6835 79.9815 68.7066 80.0045C68.7286 80.0256 68.7371 80.0533 68.731 80.0888L68.0387 84.5508C68.0217 84.6332 67.9656 84.6735 67.8681 84.6735H66.7907Z" fill="#1BB402"/>
<path d="M72.6158 83.7803C72.7938 83.7803 72.9595 83.7602 73.1131 83.719C73.2654 83.6759 73.3934 83.6174 73.4982 83.5427C73.5372 83.512 73.5738 83.4967 73.6103 83.4967C73.6493 83.4967 73.6798 83.512 73.703 83.5427L74.1368 84.041C74.1588 84.064 74.171 84.0908 74.171 84.1215C74.171 84.1502 74.1539 84.1819 74.1222 84.2173C73.904 84.3783 73.6445 84.5039 73.3422 84.593C73.04 84.6821 72.728 84.7272 72.4062 84.7272C72.0284 84.7272 71.7042 84.6725 71.4312 84.5623C71.1582 84.4531 70.94 84.2997 70.778 84.1023C70.5854 83.8522 70.4903 83.557 70.4903 83.2168C70.4903 83.1172 70.4976 83.0137 70.5147 82.9063C70.544 82.7051 70.6073 82.5029 70.7048 82.3007C70.873 81.9509 71.1509 81.6701 71.5385 81.4573C71.9285 81.2455 72.3623 81.1392 72.8401 81.1392C73.3922 81.1392 73.8163 81.2791 74.1125 81.557C74.4074 81.833 74.5707 82.2202 74.6 82.7185C74.6 82.8977 74.5951 83.0347 74.5853 83.1287C74.578 83.2082 74.522 83.2475 74.4147 83.2475H71.909C71.87 83.2475 71.8505 83.2647 71.8505 83.2973C71.8505 83.3539 71.8578 83.3999 71.8748 83.4353C71.9138 83.5484 71.9967 83.6337 72.1235 83.6922C72.2526 83.7516 72.4172 83.7803 72.6158 83.7803ZM72.6597 82.1013C72.3867 82.1013 72.1783 82.2106 72.0357 82.4272L71.987 82.5307L71.9772 82.5498C71.9772 82.5604 71.9833 82.569 71.9967 82.5767C72.0125 82.5824 72.026 82.5843 72.0357 82.5843H73.1667C73.1886 82.5843 73.2057 82.5795 73.2155 82.569C73.2276 82.5565 73.2313 82.5441 73.2252 82.5307L73.2057 82.4425C73.1789 82.3352 73.1192 82.2527 73.0253 82.1933C72.9339 82.132 72.812 82.1013 72.6597 82.1013Z" fill="#1BB402"/>
<path d="M79.5455 81.9711C79.5381 82.0075 79.5186 82.0363 79.487 82.0593C79.4577 82.0823 79.4199 82.0938 79.3748 82.0938H78.6923C78.6558 82.0938 78.6338 82.1091 78.6241 82.1398L78.4437 83.3166C78.4364 83.3425 78.434 83.3779 78.434 83.4239C78.434 83.6079 78.5424 83.6999 78.7606 83.6999H79.0238C79.0689 83.6999 79.1031 83.7114 79.1262 83.7344C79.1481 83.7555 79.1579 83.7833 79.1555 83.8188L79.0433 84.5241C79.036 84.596 78.9812 84.6372 78.8776 84.6468C78.6265 84.6544 78.4486 84.6583 78.3413 84.6583C77.9026 84.6583 77.5735 84.6084 77.3566 84.5088C77.1421 84.4091 77.0348 84.2232 77.0348 83.9491C77.0348 83.9137 77.0397 83.8552 77.0495 83.7728L77.3078 82.1398V82.1283C77.3078 82.1053 77.2896 82.0938 77.2542 82.0938H76.8545C76.8081 82.0938 76.7728 82.0823 76.7472 82.0593C76.7204 82.0363 76.7106 82.0075 76.718 81.9711L76.8203 81.3194C76.8362 81.2409 76.8935 81.2006 76.991 81.2006H77.3907C77.4102 81.2006 77.4261 81.1968 77.4395 81.1891C77.4516 81.1795 77.459 81.1661 77.459 81.1508L77.5808 80.3918C77.5869 80.3563 77.6052 80.3285 77.6345 80.3074C77.6661 80.2844 77.7051 80.2729 77.7515 80.2729H78.7703C78.8154 80.2729 78.8496 80.2844 78.8727 80.3074C78.8946 80.3285 78.9032 80.3563 78.8971 80.3918L78.7752 81.1508C78.7752 81.1843 78.7923 81.2006 78.8288 81.2006H79.5211C79.5662 81.2006 79.6003 81.2121 79.6235 81.2351C79.6454 81.2562 79.6539 81.284 79.6478 81.3194L79.5455 81.9711Z" fill="#1BB402"/>
</svg>
